<?xml version="1.0" encoding="UTF-8" standalone="no"?> <svg width="20" height="20" viewBox="0 0 512 512" fill="none" xmlns="http://www.w3.org/2000/svg">
<path fill-rule="evenodd" clip-rule="evenodd" d="M128 456L128 56C128 42.7452 138.745 32 152 32L304 32C317.255 32 328 42.7452 328 56L328 400C328 413.255 317.255 424 304 424L208 424C194.745 424 184 413.255 184 400L184 128C184 119.163 191.163 112 200 112C208.837 112 216 119.163 216 128L216 392L296 392L296 64L160 64L160 448L352 448L352 128C352 119.163 359.163 112 368 112C376.837 112 384 119.163 384 128L384 456C384 469.255 373.255 480 360 480L152 480C138.745 480 128 469.255 128 456Z" fill="#fd1593"/>
</svg>
