<?xml version="1.0" encoding="utf-8"?>
<!-- Generator: Adobe Illustrator 24.0.2, SVG Export Plug-In . SVG Version: 6.00 Build 0)  -->
<svg version="1.1" id="Layer_1" xmlns="http://www.w3.org/2000/svg" xmlns:xlink="http://www.w3.org/1999/xlink" x="0px" y="0px"
	 viewBox="0 0 512 512" style="enable-background:new 0 0 512 512;" xml:space="preserve">
<style type="text/css">
	.st0{fill:#C1E8F7;}
	.st1{fill:#373737;}
	.st2{fill:#F4CCAF;}
	.st3{fill:#F6F6F6;}
	.st4{fill:#FBFBFB;}
	.st5{fill:#E5E5E5;}
	.st6{fill:#FCD4B5;}
</style>
<circle id="XMLID_8251_" class="st0" cx="256.0887" cy="255.7097" r="249.9996"/>
<g id="XMLID_6615_">
	<path id="XMLID_6624_" class="st1" d="M217.8729,307.7187c3.3656-8.6297,3.9373-17.1595,3.9701-23.3694
		c-2.1283-1.712-4.1913-3.5053-6.1557-5.4006c-15.0319-14.5148-14.9029-51.1919-18.5317-48.5996
		c-8.2941,5.5727-13.6073-11.015-14.6445-20.8645c-0.8015-7.6133,1.7071-11.7648,4.7995-11.3674
		c1.2841,1.4142,3.044,0.4721,4.9292,4.2024c1.5239,3.015,2.9942-11.7645,16.7312-23.1698l16.5398-14.4348
		c13.7367,1.5555,18.7406,5.4419,42.8618,18.1235c20.2827,10.6626,46.0808,19.2488,49.7189,22.1824
		c1.6082,1.296,2.8514-4.7961,9.0253-6.5932c0.0662-0.0197,0.1335-0.1758,0.2004-0.2796c2.6986,0.3814,4.7218,4.4076,3.992,11.3366
		c-1.0365,9.8495-6.3497,26.4372-14.6445,20.8645c-3.6288-2.5923-3.4991,34.0848-18.5321,48.5996
		c-1.0792,1.0402-2.1811,2.0585-3.3072,3.0496c-0.8852,0.777-1.8336,1.4796-2.7503,2.2202
		c0.0264,6.2319,0.5855,14.8434,3.9901,23.5494c1.1651-0.7826,1.9257-0.8008,2.4704,0.1197
		c0.3848,0.6498,0.7725,1.1963,1.1591,1.7953h34.1439c0,0,43.9934-20.0857,21.4734-38.456
		c-25.9134-21.1389,3.2102-18.1417,1.9796-41.3097c-0.7826-14.7382-17.6525-19.1748-14.9397-36.0473
		c4.0708-25.3119-4.8437-68.1138-36.0135-75.3714c-53.6173-35.2722-104.8653-13.0824-122.92,23.1482
		c-21.1478,42.435,8.6506,51.1339-17.0298,70.7221c-8.458,6.4497-11.4496,16.6461-8.0688,23.2137
		c6.5683,12.7612,21.6906,21.9408,10.5719,29.9932c-16.8428,12.1968-9.5298,28.534,14.6538,44.1072h30.7701
		c0.3878-0.5989,0.7751-1.1454,1.1592-1.7953C216.0089,306.9852,216.7495,306.9871,217.8729,307.7187z"/>
	<path id="XMLID_6623_" class="st2" d="M257.0055,347.4874c-2.7492,3.1983-8.7632,7.849-13.5645,12.9407
		c5.6698,7.0903,10.4138,14.2263,13.9902,20.0005c3.4916-5.64,8.103-12.576,13.5988-19.5049
		C266.1643,355.6394,259.8443,350.789,257.0055,347.4874z"/>
	<path id="XMLID_6622_" class="st2" d="M283.5688,290.2324c-3.4273,2.0075-7.0557,3.6741-10.8388,4.8883
		c-3.438,1.1057-6.9906,1.8317-10.583,2.1945c-4.4619,0.4521-9.0428,0.3141-13.4746-0.3881
		c-3.6377-0.5774-7.2092-1.5503-10.6384-2.8972c-3.8474-1.5105-7.5033-3.4838-10.9403-5.7765
		c-1.8164-1.2104-3.5507-2.5358-5.2508-3.9043c-0.0327,6.21-0.6045,14.7397-3.9701,23.3694
		c4.0764,2.6574,13.5445,15.5676,39.1326,35.3194c25.4398-19.6377,34.9443-32.5096,39.0598-35.2704
		c-3.4046-8.706-3.9638-17.3175-3.9901-23.5494C289.3705,286.404,286.5704,288.4751,283.5688,290.2324z"/>
	<path id="XMLID_6621_" class="st3" d="M250.4722,392.2169c1.0168-1.6793,3.4146-6.0664,6.959-11.7883
		c-3.5764-5.7742-8.3204-12.9102-13.9902-20.0005c-3.9675,4.2061-7.0758,8.6971-6.6802,12.8939
		c1.1001,11.6429-35.3603-31.1806-34.8956-47.7538c-0.7733,0.5082-1.6346,0.9855-2.6455,1.3759
		c-9.2815,3.5923-81.0676,29.6158-83.5435,32.9067c-0.7662,1.0201-1.3778,2.3254-1.9395,3.8266l0.019,0.0074
		c2.3797-4.1589,4.834-6.1136,7.3416-5.1263c37.2318,14.6635,32.8888,92.9008,33.9681,111.2042
		c0.2078,3.5325-0.1807,8.4718-0.935,14.1988c29.2292,13.0771,61.4146,20.6901,95.2927,21.5798
		C249.4256,443.3415,249.6781,393.5311,250.4722,392.2169z"/>
	<path id="XMLID_6620_" class="st4" d="M360.7388,469.7627c1.0785-18.3034-3.2637-96.5407,33.9662-111.2042
		c0.7878-0.3104,1.5692-0.2888,2.3473-0.0472c-12.2902-6.2843-72.9271-28.2853-81.4096-31.5672
		c-1.4186-0.5483-2.5577-1.2562-3.5236-2.0042c1.4376,16.094-35.9819,60.1737-34.8692,48.3821
		c0.3814-4.0318-2.4786-8.3338-6.22-12.3983c-5.4958,6.9289-10.1071,13.8649-13.5988,19.5049
		c-3.5444,5.7218-5.9423,10.109-6.959,11.7883c-0.7941,1.3142-1.0465,51.1246-1.0491,113.3244
		c2.222,0.058,4.4303,0.1688,6.6657,0.1688c37.6656,0,73.3572-8.3829,105.3898-23.2988
		C360.8589,477.3523,360.5503,472.9703,360.7388,469.7627z"/>
	<path id="XMLID_6619_" class="st5" d="M236.7608,373.322c-0.3956-4.1968,2.7128-8.6877,6.6802-12.8939
		c4.8013-5.0917,10.8154-9.7424,13.5645-12.9407c2.8388,3.3016,9.1588,8.152,14.0244,13.4363
		c3.7414,4.0645,6.6014,8.3665,6.22,12.3983c-1.1127,11.7916,36.3068-32.2881,34.8692-48.3821
		c-0.0089-0.0996-0.0019-0.2123-0.0138-0.3104c-0.2721-2.2235-6.3839-5.6054-12.4106-14.9467
		c-0.3866-0.5989-0.7744-1.1454-1.1591-1.7953c-0.5446-0.9205-1.3053-0.9023-2.4704-0.1197
		c-4.1154,2.7607-13.62,15.6327-39.0598,35.2704c-25.5881-19.7518-35.0562-32.662-39.1326-35.3194
		c-1.1235-0.7316-1.864-0.7335-2.3979,0.1688c-0.384,0.6498-0.7714,1.1963-1.1592,1.7953
		c-6.0255,9.3413-12.1385,12.7232-12.4099,14.9467c-0.0364,0.2959-0.0316,0.6227-0.0409,0.9387
		C201.4005,342.1414,237.8608,384.9649,236.7608,373.322z"/>
	<path id="XMLID_6618_" class="st6" d="M238.034,294.03c3.4292,1.3469,7.0007,2.3198,10.6384,2.8972
		c4.4318,0.7022,9.0127,0.8402,13.4746,0.3881c3.5923-0.3628,7.1449-1.0889,10.583-2.1945
		c3.7831-1.2142,7.4115-2.8808,10.8388-4.8883c3.0016-1.7573,5.8018-3.8284,8.5063-6.014c0.9167-0.7405,1.8651-1.4432,2.7503-2.2202
		c1.1261-0.9911,2.228-2.0094,3.3072-3.0496c15.033-14.5148,14.9033-51.1919,18.5321-48.5996
		c8.2948,5.5727,13.608-11.015,14.6445-20.8645c0.7298-6.9289-1.2934-10.9551-3.992-11.3366
		c-0.0669,0.1037-0.1342,0.2599-0.2004,0.2796c-6.1739,1.7971-7.4171,7.8892-9.0253,6.5932
		c-3.6381-2.9336-29.4362-11.5199-49.7189-22.1824c-24.1212-12.6816-29.1251-16.568-42.8618-18.1235l-16.5398,14.4348
		c-13.737,11.4053-15.2074,26.1848-16.7312,23.1698c-1.8852-3.7303-3.6451-2.7882-4.9292-4.2024
		c-3.0923-0.3974-5.601,3.7541-4.7995,11.3674c1.0372,9.8495,6.3505,26.4372,14.6445,20.8645
		c3.6288-2.5923,3.4998,34.0848,18.5317,48.5996c1.9644,1.8953,4.0273,3.6886,6.1557,5.4006
		c1.7001,1.3685,3.4344,2.6938,5.2508,3.9043C230.5307,290.5462,234.1867,292.5195,238.034,294.03z"/>
	<path id="XMLID_6617_" class="st5" d="M397.0523,358.5113c-0.7781-0.2416-1.5596-0.2632-2.3473,0.0472
		c-37.2299,14.6635-32.8877,92.9008-33.9662,111.2042c-0.1885,3.2076,0.1201,7.5896,0.7398,12.6485
		c21.5471-10.0347,41.4085-23.0501,59.0893-38.5158C414.3598,400.1496,406.1047,361.3177,397.0523,358.5113z"/>
	<path id="XMLID_6616_" class="st5" d="M155.0653,469.7627c-1.0792-18.3034,3.2637-96.5407-33.9681-111.2042
		c-2.5076-0.9874-4.9619,0.9673-7.3416,5.1263c-7.2628,12.6976-13.8088,46.3671-18.9131,83.0115
		c17.8038,15.0464,37.7381,27.6246,59.2878,37.2652C154.8846,478.2345,155.2731,473.2952,155.0653,469.7627z"/>
</g>
</svg>
